# xmcd
#
# Track frame offsets: 
#        150
#        9615
#        22778
#        38612
#        46933
#        58434
#        67908
#        78619
#        97453
#        107871
#        117960
#        129229
#
# Disc length: 1983 seconds
#
# Revision: 0
# Processed by: cddbd v1.5.2PL0 Copyright (c) Steve Scherf et al.
# Submitted via: ExactAudioCopyFreeDBPlugin 1.0
#
DISCID=9d07bd0c
DTITLE=Starkweather Boys - Archer St. Blues
DYEAR=2007
DGENRE=Blues
TTITLE0=Abigail Blue
TTITLE1=Slow Movin' Girl
TTITLE2=Little Mae
TTITLE3=Off His Leash
TTITLE4=Hard Time Gettin' Started
TTITLE5=Man Without Shame
TTITLE6=Bare Bones
TTITLE7=The Best Of You
TTITLE8=Straight Razor Baby
TTITLE9=Archer St. Blues
TTITLE10=Rather Do It Alone
TTITLE11=True Fine Mama
EXTD=
EXTT0=
EXTT1=
EXTT2=
EXTT3=
EXTT4=
EXTT5=
EXTT6=
EXTT7=
EXTT8=
EXTT9=
EXTT10=
EXTT11=
PLAYORDER=
